<svg width="64" height="64" viewBox="0 0 64 64" fill="none" xmlns="http://www.w3.org/2000/svg">
  <rect width="64" height="64" rx="16" fill="#0B4F4A"/>
  <path d="M43.5 19.5C40.9 16.9 37.1 15.5 32.2 15.5C24.8 15.5 19.7 19.2 19.7 24.8C19.7 30.5 24.1 32.6 31.3 34.2C36.1 35.3 38.1 36.4 38.1 38.8C38.1 41.4 35.7 43 32 43C27.7 43 24 41.3 20.9 38.3L16.5 43.2C20.2 46.9 25.4 49 31.7 49C39.7 49 45 45 45 38.5C45 32.7 40.7 30.4 33.3 28.7C28.4 27.6 26.5 26.6 26.5 24.5C26.5 22.4 28.6 21.1 32 21.1C35.4 21.1 38 22.2 40.3 24.4L43.5 19.5Z" fill="#E7F6F3"/>
  <circle cx="49" cy="15" r="5" fill="#8FE0D4"/>
</svg>
